<svg viewBox="0 0 20 20"><clipPath id="clip-path"><rect class="cls-1" x="0.9" y="0.13" width="18.2" height="19.75"/></clipPath></defs><g class="cls-2"><path d="M16.87.14H3.21A2.28,2.28,0,0,0,.9,2.4V17.59a2.25,2.25,0,0,0,2.26,2.26H16.82a2.25,2.25,0,0,0,2.27-2.26V2.4A2.19,2.19,0,0,0,16.87.14Zm.74,17.45a.74.74,0,0,1-.74.74H3.21a.73.73,0,0,1-.74-.74V2.4a.73.73,0,0,1,.74-.74H16.87a.74.74,0,0,1,.74.74Zm0,0"/></g><path d="M13.87,11.41H10.56v-1h3.31a.53.53,0,0,0,.52-.52.56.56,0,0,0-.52-.52H11.21l2.61-3.79a.44.44,0,0,0,.09-.39.6.6,0,0,0-.22-.35.44.44,0,0,0-.39-.08A.59.59,0,0,0,13,5L10,9.19,7.12,5a.46.46,0,0,0-.35-.22.44.44,0,0,0-.39.09.46.46,0,0,0-.22.35.42.42,0,0,0,.09.39L8.86,9.36H6.21a.52.52,0,0,0-.52.53.56.56,0,0,0,.52.52h3.3v1H6.21a.52.52,0,0,0-.52.52.56.56,0,0,0,.52.52h3.3v2.26a.53.53,0,0,0,.53.52.56.56,0,0,0,.52-.52V12.41h3.31a.53.53,0,0,0,.52-.52.5.5,0,0,0-.52-.48Zm0,0"/></svg>