<svg viewBox="0 0 20 20">
		<path d="M19.6,4.2l-3.8-3.8c-0.5-0.5-1.4-0.5-1.9,0L10,4.2c-0.5,0.5-0.5,1.4,0,1.9l3.8,3.8c0.5,0.5,1.4,0.5,1.9,0l3.8-3.8
			C20.1,5.6,20.1,4.7,19.6,4.2L19.6,4.2z M14.8,9L11,5.2l3.8-3.8l3.8,3.8L14.8,9z M6.7,1.1H1.3C0.6,1.1,0,1.7,0,2.5v5.4
			c0,0.7,0.6,1.3,1.3,1.3h5.4c0.7,0,1.3-0.6,1.3-1.3V2.5C8.1,1.7,7.5,1.1,6.7,1.1L6.7,1.1z M6.7,11.9H1.3c-0.7,0-1.3,0.6-1.3,1.3
			v5.4C0,19.4,0.6,20,1.3,20h5.4c0.7,0,1.3-0.6,1.3-1.3v-5.4C8.1,12.5,7.5,11.9,6.7,11.9L6.7,11.9z M17.5,11.9h-5.4
			c-0.7,0-1.3,0.6-1.3,1.3v5.4c0,0.7,0.6,1.3,1.3,1.3h5.4c0.7,0,1.3-0.6,1.3-1.3v-5.4C18.8,12.5,18.2,11.9,17.5,11.9L17.5,11.9z
			 M17.5,11.9"></path>
</svg>