<svg width="158" height="158" viewBox="0 0 1024 1024" ><path d="M512 685.037037c-95.383704 0-173.037037-77.653333-173.037037-173.037037S416.616296 338.962963 512 338.962963 685.037037 416.616296 685.037037 512 607.383704 685.037037 512 685.037037z m0-303.407407c-71.86963 0-130.37037 58.500741-130.37037 130.37037S440.13037 642.37037 512 642.37037 642.37037 583.86963 642.37037 512 583.86963 381.62963 512 381.62963zM571.259259 938.666667h-118.518518c-11.757037 0-21.333333-9.576296-21.333334-21.333334v-73.576296c-34.322963-8.248889-66.844444-21.712593-96.995555-40.201481l-52.053333 52.053333c-3.982222 3.982222-9.386667 6.257778-15.075556 6.257778s-11.093333-2.275556-15.075556-6.257778L168.391111 771.792593c-3.982222-3.982222-6.257778-9.386667-6.257778-15.075556s2.275556-11.093333 6.257778-15.075556l52.053333-52.053333c-18.488889-30.151111-31.952593-62.672593-40.201481-96.995555h-73.576296c-11.757037 0-21.333333-9.576296-21.333334-21.333334v-118.518518c0-11.757037 9.576296-21.333333 21.333334-21.333334h73.576296c8.248889-34.322963 21.712593-66.844444 40.201481-96.995555l-52.053333-52.053333c-3.982222-3.982222-6.257778-9.386667-6.257778-15.075556s2.275556-11.093333 6.257778-15.075556l83.816296-83.816296c3.982222-3.982222 9.386667-6.257778 15.075556-6.257778s11.093333 2.275556 15.075556 6.257778l52.053333 52.053333c30.151111-18.488889 62.672593-31.952593 96.995555-40.201481v-73.576296c0-11.757037 9.576296-21.333333 21.333334-21.333334h118.518518c11.757037 0 21.333333 9.576296 21.333334 21.333334v73.576296c34.322963 8.248889 66.844444 21.712593 96.995555 40.201481l52.053333-52.053333c3.982222-3.982222 9.386667-6.257778 15.075556-6.257778s11.093333 2.275556 15.075556 6.257778l83.816296 83.816296c3.982222 3.982222 6.257778 9.386667 6.257778 15.075556s-2.275556 11.093333-6.257778 15.075556l-52.053333 52.053333c18.488889 30.151111 31.952593 62.672593 40.201481 96.995555h73.576296c11.757037 0 21.333333 9.576296 21.333334 21.333334v118.518518c0 11.757037-9.576296 21.333333-21.333334 21.333334h-73.576296c-8.248889 34.322963-21.712593 66.844444-40.201481 96.995555l52.053333 52.053333c3.982222 3.982222 6.257778 9.386667 6.257778 15.075556s-2.275556 11.093333-6.257778 15.075556L771.792593 855.608889c-3.982222 3.982222-9.386667 6.257778-15.075556 6.257778s-11.093333-2.275556-15.075556-6.257778l-52.053333-52.053333c-30.151111 18.488889-62.672593 31.952593-96.995555 40.201481v73.576296c0 11.757037-9.576296 21.333333-21.333334 21.333334zM474.074074 896h75.851852v-69.499259c0-10.24 7.300741-19.057778 17.445926-20.954074 40.77037-7.585185 78.791111-23.419259 113.114074-46.838519 8.438519-5.783704 19.911111-4.740741 27.117037 2.56l49.114074 49.114074 53.665185-53.665185-49.114074-49.114074c-7.300741-7.300741-8.343704-18.678519-2.56-27.117037 23.514074-34.322963 39.253333-72.343704 46.838519-113.114074 1.896296-10.05037 10.714074-17.445926 20.954074-17.445926H896v-75.851852h-69.499259c-10.24 0-19.057778-7.300741-20.954074-17.445926-7.585185-40.77037-23.419259-78.791111-46.838519-113.114074-5.783704-8.438519-4.740741-19.911111 2.56-27.117037l49.114074-49.114074-53.665185-53.665185-49.114074 49.114074c-7.300741 7.300741-18.678519 8.343704-27.117037 2.56-34.322963-23.514074-72.343704-39.253333-113.114074-46.838519-10.05037-1.896296-17.445926-10.714074-17.445926-20.954074V128h-75.851852v69.499259c0 10.24-7.300741 19.057778-17.445926 20.954074-40.77037 7.585185-78.791111 23.419259-113.114074 46.838519-8.438519 5.783704-19.911111 4.740741-27.117037-2.56l-49.114074-49.114074-53.665185 53.665185 49.114074 49.114074c7.300741 7.300741 8.343704 18.678519 2.56 27.117037-23.514074 34.322963-39.253333 72.343704-46.838519 113.114074-1.896296 10.05037-10.714074 17.445926-20.954074 17.445926H128v75.851852h69.499259c10.24 0 19.057778 7.300741 20.954074 17.445926 7.585185 40.77037 23.419259 78.791111 46.838519 113.114074 5.783704 8.438519 4.740741 19.911111-2.56 27.117037l-49.114074 49.114074 53.665185 53.665185 49.114074-49.114074c7.300741-7.300741 18.678519-8.343704 27.117037-2.56 34.322963 23.514074 72.343704 39.253333 113.114074 46.838519 10.05037 1.896296 17.445926 10.714074 17.445926 20.954074V896z" /></svg>
