<svg class="icon" width="128" height="128" viewBox="0 0 1024 1024"><path d="M504.280512 504.28608a111.886743 111.886743 0 1 1 0-158.230231 111.886743 111.886743 0 0 1 0 158.230231z"  /><path d="M820.740975 725.821831l189.871802 189.871802a44.754697 44.754697 0 0 1 0 63.283142l-31.641571 31.641571a44.754697 44.754697 0 0 1-63.283141 0l-189.871803-189.871803z"  /><path d="M725.816262 725.821831a425.169622 425.169622 0 1 1 0-601.279355 425.169622 425.169622 0 0 1 0 601.279355z m13.76207-344.92445h-22.377349a43.993867 43.993867 0 0 0-4.766375 0.469924 288.913947 288.913947 0 0 0-52.74341-127.752283 41.107189 41.107189 0 0 0 3.759394-2.506263l15.820786-15.910295a44.754697 44.754697 0 0 0-63.283142-63.283141l-15.820785 15.820785a41.957528 41.957528 0 0 0-2.394377 3.580376 288.913947 288.913947 0 0 0-127.77466-53.369976c0.156641-1.208377 0.402792-2.506263 0.402792-3.871282v-22.377348a44.754697 44.754697 0 0 0-89.509394 0v22.377348c0 1.320264 0.268528 2.551018 0.380415 3.826527A288.936324 288.936324 0 0 0 253.094775 190.958446c-0.827962-0.984603-1.141245-2.237735-2.081094-3.132828l-15.820785-15.820786A44.754697 44.754697 0 1 0 171.999264 235.198464l15.820785 15.820786c0.917471 0.917471 2.237735 1.253132 3.132829 2.081093a288.936324 288.936324 0 0 0-53.034316 128.087943c-1.275509 0-2.52864-0.380415-3.826527-0.380415h-22.377348a44.754697 44.754697 0 1 0 0 89.509394h22.377348c1.365018 0 2.640527-0.290906 3.960791-0.402792A288.913947 288.913947 0 0 0 191.400425 597.711511a41.957528 41.957528 0 0 0-3.580376 2.394376l-15.820785 15.820785a44.754697 44.754697 0 0 0 63.193632 63.350274l15.820785-15.820785a41.107189 41.107189 0 0 0 2.506263-3.759395 288.913947 288.913947 0 0 0 127.752283 52.74341 43.993867 43.993867 0 0 0-0.469924 4.766376v22.377348a44.754697 44.754697 0 0 0 89.509394 0v-22.377348a44.150509 44.150509 0 0 0-0.492302-4.90064 288.936324 288.936324 0 0 0 127.550887-53.07907 41.935151 41.935151 0 0 0 2.797169 4.229319l15.820785 15.820785a44.754697 44.754697 0 0 0 63.283142-63.283142l-15.820786-15.820785a41.935151 41.935151 0 0 0-4.229319-2.797169 288.936324 288.936324 0 0 0 53.079071-127.550886 44.150509 44.150509 0 0 0 4.900639 0.492301h22.377349a44.754697 44.754697 0 0 0 0-89.419884z"  /></svg>