<svg viewBox="0 0 1024 1024"><path d="M810.688 592.192H512c-45.248 0-85.312-30.912-85.312-85.312V208.448c0-145.792-118.208-88.32-119.296-87.872C127.104 183.936 0 358.016 0 560.64A463.168 463.168 0 0 0 462.976 1024a463.168 463.168 0 0 0 437.504-311.424c-0.704 1.792 51.712-120.384-89.792-120.384z m208-184.96C975.36 205.44 819.008 44.608 616.576 4.608c-114.56-22.656-102.208 44.16-102.208 92.928v306.688c0 58.496 60.032 104.96 102.912 104.96h308.672c50.112 0 117.632 13.952 92.736-101.824z" p-id="17616"></path></svg>
