<svg id="图层_1" data-name="图层 1" xmlns="http://www.w3.org/2000/svg" viewBox="0 0 20 20"><defs><style>.cls-1{fill:#191919;}</style></defs><title>画板 11</title><path class="cls-1" d="M4.54.24,4.6.3,8.23,3.93a1,1,0,0,1,.06,1.39l-.06.06L6,7.59a.5.5,0,0,0-.1.59,12.52,12.52,0,0,0,2.43,3.46,12.67,12.67,0,0,0,3.46,2.43.48.48,0,0,0,.54-.06l.05,0,2.17-2.25A1,1,0,0,1,16,11.66l.06.06,3.67,3.67a1,1,0,0,1,.06,1.39l-.06.07L16.84,19.7a1,1,0,0,1-1,.27,24.43,24.43,0,0,1-9.69-5Q2.05,11.46,0,4.15a1,1,0,0,1,.2-.94L.3,3.15,3.15.3,3.21.24a1,1,0,0,1,1.33,0ZM3.87,1.75,1.6,4v0c1.23,4.33,3,7.52,5.38,9.6l.17.15a22.67,22.67,0,0,0,8.72,4.57l.08,0,2.28-2.28L15.3,13.18,13.51,15a2.07,2.07,0,0,1-2.27.47l-.1,0a14.42,14.42,0,0,1-3.88-2.73A14.42,14.42,0,0,1,4.53,8.85a2,2,0,0,1,.32-2.26l.08-.08L6.78,4.66ZM18.11,4.2a.77.77,0,0,1,.67,1.14l0,0-1,1.54a.77.77,0,0,1-1,.24.78.78,0,0,1-.28-1l0-.06.23-.34H13a.77.77,0,0,1-.76-.7V5a.77.77,0,0,1,.7-.77h5.21Zm-3.68-4a.76.76,0,0,1,.25,1l0,.07-.23.34h3.7a.77.77,0,0,1,.77.69V2.4a.77.77,0,0,1-.7.77H13A.77.77,0,0,1,12.3,2l0-.06,1-1.54A.77.77,0,0,1,14.43.22Zm0,0"/></svg>