<svg width="1024" height="1024">
  <path stroke="null" id="svg_1" d="m887.129818,1023.75763l-755.688003,0c-27.065043,0 -49.063724,-22.132006 -49.063724,-49.063724c0,-27.065043 22.132006,-49.063724 49.063724,-49.063724l755.821328,0c27.065043,0 49.063724,22.132006 49.063724,49.063724c0,27.065043 -22.132006,49.063724 -49.197049,49.063724zm48.530422,-437.840402l-254.518066,0c-0.933277,-0.399976 -1.99988,-0.666627 -3.066483,-0.666627l-0.133325,0c-33.198009,0 -59.996401,-26.931718 -59.996401,-59.996401c0,-19.198848 8.932797,-36.131166 22.931958,-47.197169c75.062164,-44.797313 125.19249,-126.792394 125.19249,-220.653431c0,-141.858157 -115.059765,-256.917922 -256.917922,-256.917922s-256.784597,115.059765 -256.784597,257.051247c0,93.727711 50.263652,175.722792 125.325816,220.653431c14.932438,10.932678 24.665187,28.531622 24.665187,48.397097c0,30.131526 -22.265331,55.196689 -51.196929,59.329774l-268.250575,0c-26.398416,0 -47.997121,21.598704 -47.997121,47.997121l0,143.724712c0,26.398416 21.598704,47.997121 47.997121,47.997121l852.748847,0c26.398416,0 47.997121,-21.598704 47.997121,-47.997121l0,-143.724712c0,-26.398416 -21.598704,-47.997121 -47.997121,-47.997121z"/>
</svg>