<svg viewBox="0 0 20 20">
		<path d="M20,17.5c0,0.3,0,0.5-0.1,0.8c-0.1,0.2-0.2,0.4-0.4,0.6c-0.2,0.2-0.4,0.3-0.6,0.4c-0.2,0.1-0.5,0.2-0.8,0.1h-16
			c-0.3,0-0.5,0-0.8-0.1c-0.2-0.1-0.5-0.2-0.7-0.4c-0.2-0.2-0.3-0.4-0.4-0.6C0.1,18.1,0,17.8,0,17.5V6.7c0-0.5,0.2-1,0.6-1.4
			C1,4.9,1.5,4.7,2,4.7h16c0.5,0,1,0.2,1.4,0.6C19.8,5.7,20,6.2,20,6.7v2.9h-5c-0.5,0-1,0.2-1.4,0.6c-0.4,0.4-0.6,0.9-0.6,1.4
			c0,0.3,0.1,0.7,0.2,1c0.1,0.3,0.3,0.5,0.6,0.7c0.4,0.2,0.8,0.3,1.2,0.3h5V17.5z M17,3.7H7C7.8,3.3,8.5,3,9.2,2.6
			c0.6-0.3,1.2-0.6,1.8-0.9c0.6-0.3,1.1-0.6,1.4-0.7c0.4-0.2,0.9-0.4,1.4-0.4c0.3,0,0.7,0.1,1,0.2c0.3,0.2,0.6,0.4,0.8,0.6L17,3.7z
			 M14,11.6c0-0.3,0.1-0.5,0.3-0.7c0.4-0.4,1-0.4,1.4,0c0.2,0.2,0.3,0.4,0.3,0.7c0,0.3-0.1,0.5-0.3,0.7c-0.2,0.2-0.4,0.3-0.7,0.3
			c-0.3,0-0.5-0.1-0.7-0.3C14.1,12.1,14,11.9,14,11.6L14,11.6z M14,11.6"></path>
</svg>
