<svg viewBox="0 0 1160 1024"><path d="M630.5792 938.257067a44.782933 44.782933 0 0 1-58.504533 24.098133L53.384533 746.973867a44.782933 44.782933 0 0 1 34.338134-82.602667l518.621866 215.517867a44.509867 44.509867 0 0 1 24.234667 58.368z" p-id="10250"></path><path d="M548.386133 937.984c9.557333 22.801067 35.703467 33.723733 58.504534 24.1664l500.9408-208.213333a44.782933 44.782933 0 0 0-34.338134-82.602667l-500.9408 208.213333a44.782933 44.782933 0 0 0-24.1664 58.504534z m82.193067-192.375467a44.782933 44.782933 0 0 1-58.504533 24.098134L53.384533 554.325333a44.782933 44.782933 0 0 1 34.338134-82.602666l518.621866 215.586133a44.509867 44.509867 0 0 1 24.234667 58.368z" p-id="10251"></path><path d="M548.386133 745.335467c9.557333 22.801067 35.703467 33.655467 58.504534 24.1664l500.9408-208.213334a44.782933 44.782933 0 0 0-34.338134-82.602666l-500.9408 208.213333a44.782933 44.782933 0 0 0-24.1664 58.436267z m584.362667-446.737067a44.714667 44.714667 0 0 0-25.053867-26.555733L589.141333 56.5248a44.168533 44.168533 0 0 0-17.6128-3.413333 44.168533 44.168533 0 0 0-17.749333 3.413333L53.794133 264.192a44.305067 44.305067 0 0 0-25.941333 29.354667l-0.273067 0.750933v0.136533a44.714667 44.714667 0 0 0 25.941334 53.248L572.074667 563.336533c11.605333 4.778667 24.029867 4.437333 34.679466-0.136533h0.136534l500.9408-208.213333a44.578133 44.578133 0 0 0 24.917333-56.388267z" p-id="10252"></path></svg>
