<svg viewBox="0 0 20 20">
		<path d="M18.7,13.2l0.9,0.5c0.2,0.1,0.4,0.4,0.4,0.6c0,0.3-0.1,0.5-0.4,0.6l-9.3,5c-0.2,0.1-0.5,0.1-0.7,0l-9.3-5
			C0.1,14.8,0,14.6,0,14.3c0-0.3,0.1-0.5,0.4-0.6l0.9-0.5c0,0,0.1,0,0.1,0l8.4,4.5c0.1,0.1,0.2,0.1,0.3,0l8.4-4.5
			C18.6,13.2,18.7,13.2,18.7,13.2L18.7,13.2z M18.7,8.9l0.9,0.5C19.8,9.5,20,9.7,20,10c0,0.3-0.1,0.5-0.4,0.6l-9.3,5
			c-0.2,0.1-0.5,0.1-0.7,0l-9.3-5C0.1,10.5,0,10.3,0,10c0-0.3,0.1-0.5,0.4-0.6l0.9-0.5c0,0,0.1,0,0.1,0l8.4,4.5
			c0.1,0.1,0.2,0.1,0.3,0l8.4-4.5C18.6,8.9,18.7,8.9,18.7,8.9L18.7,8.9z M10.3,0.1l9.3,5C19.8,5.2,20,5.4,20,5.7
			c0,0.3-0.1,0.5-0.4,0.6l-9.3,5c-0.2,0.1-0.5,0.1-0.7,0l-9.3-5C0.1,6.2,0,5.9,0,5.7C0,5.4,0.1,5.2,0.4,5l9.3-5
			C9.9,0,10.1,0,10.3,0.1L10.3,0.1z M10.3,0.1"></path>
</svg>
