<svg viewBox="0 0 20 20"><path d="M17.86,20.45H16.45a2.16,2.16,0,0,1-2.12-2.11V16.93a2.16,2.16,0,0,1,2.12-2.11V13.41a.65.65,0,0,0-.2-.51.61.61,0,0,0-.51-.19H10.8v2.11a2.17,2.17,0,0,1,2.12,2.11v1.41a2.08,2.08,0,0,1-2.12,2.11H9.38a2.16,2.16,0,0,1-2.12-2.11V16.93a2.16,2.16,0,0,1,2.12-2.11V12.7h-5a.66.66,0,0,0-.51.2.68.68,0,0,0-.19.51v1.4a2.18,2.18,0,0,1,2.12,2.12v1.41a2.09,2.09,0,0,1-.61,1.51,2.12,2.12,0,0,1-1.51.6H2.31A2.17,2.17,0,0,1,.19,18.34V16.93a2.17,2.17,0,0,1,2.12-2.11V13.41a2.18,2.18,0,0,1,2.12-2.12h5V8.48H8A2.17,2.17,0,0,1,5.85,6.36V2.14A2.17,2.17,0,0,1,8,0h4.24a2.17,2.17,0,0,1,2.12,2.12V6.36a2.08,2.08,0,0,1-2.12,2.12H10.8v2.81h4.94a2.17,2.17,0,0,1,2.12,2.12v1.41A2.16,2.16,0,0,1,20,16.93v1.41a2.07,2.07,0,0,1-2.12,2.11ZM8.68,16.93v1.41a.65.65,0,0,0,.19.51.69.69,0,0,0,.51.19H10.8a.65.65,0,0,0,.7-.7V16.93a.68.68,0,0,0-.19-.51.69.69,0,0,0-.51-.19H9.38a.69.69,0,0,0-.51.19.64.64,0,0,0-.19.51Zm-6.37-.7a.69.69,0,0,0-.51.19.68.68,0,0,0-.19.51v1.41a.69.69,0,0,0,.19.51.69.69,0,0,0,.51.19H3.73a.65.65,0,0,0,.7-.7V16.93a.68.68,0,0,0-.19-.51.69.69,0,0,0-.51-.19ZM12.92,6.36V2.14a.65.65,0,0,0-.2-.51.65.65,0,0,0-.51-.2H8a.65.65,0,0,0-.51.2.65.65,0,0,0-.2.51V6.36a.65.65,0,0,0,.2.51A.61.61,0,0,0,8,7.06h4.24a.61.61,0,0,0,.51-.19.65.65,0,0,0,.2-.51Zm5.65,10.57a.65.65,0,0,0-.2-.51.68.68,0,0,0-.51-.19H16.45a.68.68,0,0,0-.51.19.65.65,0,0,0-.2.51v1.41a.66.66,0,0,0,.2.51.68.68,0,0,0,.51.19h1.41a.68.68,0,0,0,.51-.19.66.66,0,0,0,.2-.51V16.93Zm0,0"/></svg>