<?xml version="1.0" standalone="no"?><!DOCTYPE svg PUBLIC "-//W3C//DTD SVG 1.1//EN" "http://www.w3.org/Graphics/SVG/1.1/DTD/svg11.dtd"><svg t="1583804157481" class="icon" viewBox="0 0 1024 1024" version="1.1" xmlns="http://www.w3.org/2000/svg" p-id="4467" xmlns:xlink="http://www.w3.org/1999/xlink" width="200" height="200"><defs><style type="text/css"></style></defs><path d="M935.594667 1018.538667H80.981333a39.509333 39.509333 0 0 1-23.637333-8.533334c-0.981333 0.085333-1.962667 0.426667-2.901333 0.426667a32.554667 32.554667 0 0 1-32.256-35.84l29.013333-279.765333a32.256 32.256 0 0 1 7.424-17.493334l408.789333-491.818666a32.085333 32.085333 0 0 1 22.058667-11.434667 31.658667 31.658667 0 0 1 23.722667 7.552l240.213333 204.245333c13.568 11.605333 15.317333 32 3.797333 45.738667l-407.893333 490.666667a32.170667 32.170667 0 0 1-16 10.368l-78.08 22.272h678.528c22.4 0 42.410667-1.194667 42.410667 21.205333s-18.133333 42.410667-40.533334 42.410667zM826.88 349.013333l-290.688-245.077333 46.677333-55.466667a132.608 132.608 0 0 1 101.632-47.786666c30.165333 0 59.392 10.666667 82.304 29.952l92.672 78.122666c54.613333 46.08 60.885333 128.853333 14.08 184.704L826.837333 349.013333V349.013333z" p-id="4468"></path></svg>