<?xml version="1.0" encoding="utf-8"?>
<!-- Generator: Adobe Illustrator 24.0.1, SVG Export Plug-In . SVG Version: 6.00 Build 0)  -->
<svg viewBox="0 0 140 140">
<g>
	<g>
		<path class="st0" d="M49.7,58.1c-5,0-7.5,4-7.5,12c0,3.9,0.6,6.8,1.9,8.9c1.3,2,3.1,3,5.4,3c2.1,0,3.9-0.9,5.3-2.6
			c1.4-1.7,2.2-4.9,2.2-9.4c0-3.7-0.6-6.6-1.8-8.7S52.2,58.1,49.7,58.1z"/>
	</g>
	<g>
		<path class="st0" d="M70,0C31.3,0,0,31.3,0,70c0,38.7,31.3,70,70,70s70-31.3,70-70C140,31.3,108.7,0,70,0z M34.2,86.1H14.4V53.9
			h6.1v27h13.7V86.1z M59.6,82c-2.5,3.1-5.9,4.6-10.1,4.6c-4.3,0-7.6-1.6-10-4.8c-2.4-3.2-3.6-7.2-3.6-11.9c0-4.7,1.3-8.6,3.8-11.8
			c2.5-3.2,5.9-4.7,10-4.7c4.2,0,7.5,1.6,9.9,4.7s3.7,7.1,3.7,11.9C63.4,74.9,62.1,79,59.6,82z M93.3,86.1h-2.6l-1.8-4.3
			c-1.9,3.2-4.8,4.8-8.7,4.8c-4.4,0-7.7-1.7-9.8-5c-2.2-3.3-3.2-7.2-3.2-11.6c0-4.6,1.2-8.6,3.6-11.8c2.4-3.2,5.8-4.8,10.2-4.8
			c3.2,0,5.9,0.9,8,2.8c2.1,1.9,3.4,4.2,4,7l-5.1,0.9c-0.9-3.9-3.2-5.9-6.8-5.9c-2.3,0-4.1,0.9-5.6,2.8s-2.2,4.7-2.2,8.6
			c0,8.1,2.6,12.2,7.7,12.2c2,0,3.6-0.7,4.9-2.1c1.3-1.4,2-3.2,2-5.4h-6.7v-4.7h12.1V86.1z M111.8,86.6c-4.3,0-7.6-1.6-10-4.8
			c-2.4-3.2-3.6-7.2-3.6-11.9c0-4.7,1.3-8.6,3.8-11.8c2.5-3.2,5.9-4.7,10-4.7c4.2,0,7.5,1.6,9.9,4.7c2.4,3.2,3.7,7.1,3.7,11.9
			c0,5-1.3,9-3.8,12.1C119.3,85.1,115.9,86.6,111.8,86.6z"/>
	</g>
	<g>
		<path class="st0" d="M111.9,58.1c-5,0-7.5,4-7.5,12c0,3.9,0.6,6.8,1.9,8.9c1.3,2,3.1,3,5.4,3c2.1,0,3.9-0.9,5.3-2.6
			c1.4-1.7,2.2-4.9,2.2-9.4c0-3.7-0.6-6.6-1.8-8.7S114.4,58.1,111.9,58.1z"/>
	</g>
</g>
</svg>
