<svg viewBox="0 0 20 20">
		<path d="M16.8,13.5h-0.2c-1.4,0-2.6,0.9-3,2.2L6,15.5c-1,0-1.7-0.9-1.7-2.1l0-0.2c0-1.1,0.8-2,1.8-2h0l7.9,0.1
			c1.3,0,2.5-0.5,3.4-1.5c0.9-0.9,1.3-2.1,1.4-3.4c0-2.7-2-5-4.6-5L6,1.3C5.4,0.5,4.4,0,3.4,0H3.2C1.4,0,0,1.4,0,3.1v0.2
			c0,1.7,1.4,3.1,3.2,3.1h0.2c1.5,0,2.7-1,3-2.3l7.6,0.1c1,0,1.7,0.9,1.7,2.1c0,0.6-0.2,1.1-0.6,1.5c-0.3,0.3-0.8,0.5-1.2,0.5
			L6.1,8.3c-2.6,0-4.7,2.2-4.7,4.9l0,0.2c0,2.7,2,5,4.6,5l7.9,0.1c0.6,0.9,1.5,1.5,2.7,1.5h0.2c1.7,0,3.2-1.4,3.2-3.1v-0.2
			C20,14.9,18.6,13.5,16.8,13.5L16.8,13.5z M16.8,13.5"></path>
</svg>
