<svg viewBox="0 0 1024 1024"><path d="M809.14 630.74c-66.57 0-122.34 43.49-141.48 103.17H287.57c-49.64-0.33-89.64-39.89-89.38-88.43-0.27-48.51 39.74-88.13 89.38-88.43h447.07c98.6 0 178.83-79.35 178.83-176.83 0-97.5-80.24-176.86-178.83-176.86H354.55c-19.09-59.62-74.86-103.14-141.46-103.14-80.58 0-146.14 63.19-148.88 142.21v10.31c2.74 78.94 68.3 142.22 148.88 142.22 66.6 0 122.37-43.49 141.46-103.14h380.09c49.31 0 89.4 39.6 89.4 88.4 0.24 48.5-39.76 88.08-89.4 88.38H287.57c-98.6 0-178.83 79.36-178.83 176.88s80.24 176.83 178.83 176.83h380.09c19.15 59.68 74.91 103.14 141.48 103.14 82.34 0 149.04-65.94 149.04-147.41 0.01-81.39-66.7-147.3-149.04-147.3z" p-id="12995"></path></svg>
