<svg id="图层_1" data-name="图层 1" xmlns="http://www.w3.org/2000/svg" viewBox="0 0 20 20"><title>画板 3</title><path d="M16.84.36H15.6a.75.75,0,0,0-.74.65c0,.35.4.53.74.53h1.24a1.39,1.39,0,0,1,1.41,1.34V17.43a1.47,1.47,0,0,1-1.41,1.43H3.47c-.73,0-1.72-.68-1.72-1.43V2.89a1.29,1.29,0,0,1,1.4-1.42H4.71A.5.5,0,0,0,5.27.94.52.52,0,0,0,4.71.37H3.15A2.29,2.29,0,0,0,.67,2.92V17.31A2.46,2.46,0,0,0,3.28,20H16.71a2.37,2.37,0,0,0,2.62-2.67V2.91A2.36,2.36,0,0,0,16.84.36M4.71,6.07a.61.61,0,0,0,.63.55h9.33a.6.6,0,0,0,.63-.55.6.6,0,0,0-.63-.55H5.35a.6.6,0,0,0-.64.55M14.65,9H5.35a.6.6,0,0,0-.63.55.61.61,0,0,0,.63.55h9.34a.6.6,0,0,0,.63-.55A.64.64,0,0,0,14.65,9m0,3.8H5.35a.56.56,0,1,0,0,1.1h9.34a.6.6,0,0,0,.63-.55.63.63,0,0,0-.67-.55M7.86,1.67h4.33a.9.9,0,0,0,.93-.83A.9.9,0,0,0,12.17,0H7.86a.9.9,0,0,0-1,.83.9.9,0,0,0,1,.82"/></svg>