<svg id="图层_1" data-name="图层 1" xmlns="http://www.w3.org/2000/svg" viewBox="0 0 20 20"><title>画板 12</title><path d="M18,2.55a1.83,1.83,0,0,1,1.37.63A2.16,2.16,0,0,1,20,4.72V15.91a1.73,1.73,0,0,1-.63,1.34,1.79,1.79,0,0,1-1.37.63H2a1.75,1.75,0,0,1-1.35-.63A1.74,1.74,0,0,1,0,15.91V4.72A2.13,2.13,0,0,1,.64,3.19,1.76,1.76,0,0,1,2,2.55Zm-7.36,8.28a.66.66,0,0,1-.46.21.73.73,0,0,1-.48-.21L1.4,4.25a.73.73,0,0,0-.17.47V15.91a.76.76,0,0,0,.76.76H18a.75.75,0,0,0,.76-.76V4.72a.73.73,0,0,0-.17-.47l-8,6.58ZM3.05,4l7.1,5.56L16.92,4Zm0,0"/></svg>