<svg viewBox="0 0 32 32"><path d="M9.8,6.2h20.3c1,0,1.8-0.8,1.8-1.8c0-1-0.8-1.8-1.8-1.8H9.8C8.8,2.7,8,3.5,8,4.5C8,5.5,8.8,6.2,9.8,6.2L9.8,6.2z
		 M30.1,14.3H9.8c-1,0-1.8,0.8-1.8,1.8c0,1,0.8,1.8,1.8,1.8h20.3c1,0,1.8-0.8,1.8-1.8C31.9,15.1,31.1,14.3,30.1,14.3L30.1,14.3z
		 M30.1,25.8H9.8c-1,0-1.8,0.8-1.8,1.8c0,1,0.8,1.8,1.8,1.8h20.3c1,0,1.8-0.8,1.8-1.8C31.9,26.6,31.1,25.8,30.1,25.8L30.1,25.8z
		 M30.1,25.8"/>
	<path d="M0.1,4.5c0,1.7,1.4,3.1,3.1,3.1c1.7,0,3.1-1.4,3.1-3.1c0-1.7-1.4-3.1-3.1-3.1C1.5,1.3,0.1,2.7,0.1,4.5L0.1,4.5z M0.1,4.5"
		/>
	<path d="M0.1,16c0,1.7,1.4,3.1,3.1,3.1c1.7,0,3.1-1.4,3.1-3.1c0-1.7-1.4-3.1-3.1-3.1C1.5,12.9,0.1,14.3,0.1,16L0.1,16z M0.1,16"/>
	<path d="M0.1,27.5c0,1.7,1.4,3.1,3.1,3.1c1.7,0,3.1-1.4,3.1-3.1c0-1.7-1.4-3.1-3.1-3.1C1.5,24.4,0.1,25.8,0.1,27.5L0.1,27.5z
		 M0.1,27.5"/>
</svg>