<svg id="图层_1" data-name="图层 1" xmlns="http://www.w3.org/2000/svg" xmlns:xlink="http://www.w3.org/1999/xlink" viewBox="0 0 20 20"><defs><style>.cls-1{fill:none;}.cls-2{clip-path:url(#clip-path);}</style><clipPath id="clip-path"><rect class="cls-1" x="0.99" y="0.01" width="18.03" height="19.99"/></clipPath></defs><title>画板 5</title><g class="cls-2"><path d="M12.17,11.61a6.06,6.06,0,0,1,1.14.66H15a8.08,8.08,0,0,0-3.74-2,5.19,5.19,0,0,0,.79-.53L12.81,9a5.41,5.41,0,0,0,1.3-3.52,5.46,5.46,0,1,0-8,4.84c-3,.82-5.12,3-5.14,5.57H1v2.71a.63.63,0,0,0,.63.63.64.64,0,0,0,.63-.63V15.91a4.92,4.92,0,0,1,3.2-4.3l0,0a7.9,7.9,0,0,1,3.13-.71h.22a8,8,0,0,1,3.3.72l0,0ZM8.65,9.87a4.41,4.41,0,1,1,4.41-4.41A4.42,4.42,0,0,1,8.65,9.87Zm0,0"/></g><path d="M17.68,17.81a1.08,1.08,0,0,0-.95.58H12.18a.87.87,0,0,1,0-1.74H16.9a2.09,2.09,0,1,0,0-4.17H12.76a1.07,1.07,0,0,0-1.94.62,1.07,1.07,0,0,0,1.95.6H16.9a.87.87,0,1,1,0,1.73H12.18a2.09,2.09,0,0,0,0,4.18h4.7a1.08,1.08,0,1,0,.8-1.8Zm0,0"/></svg>