<svg id="图层_1" data-name="图层 1" xmlns="http://www.w3.org/2000/svg" viewBox="0 0 20 20"><title>画板 1</title><path d="M9.8,13H8a.56.56,0,0,0-.53.52A.57.57,0,0,0,8,14H9.8a.57.57,0,0,0,.53-.53A.56.56,0,0,0,9.8,13Zm0-8.78H8a.56.56,0,0,0-.53.52A.56.56,0,0,0,8,5.22H9.8a.56.56,0,0,0,.53-.53.48.48,0,0,0-.53-.52ZM5.83,13H4a.57.57,0,0,0-.53.52A.58.58,0,0,0,4,14H5.83a.58.58,0,0,0,.53-.53A.57.57,0,0,0,5.83,13Zm0-4.33H4a.6.6,0,0,0-.53.4A.57.57,0,0,0,4,9.54H5.83A.57.57,0,0,0,6.36,9c0-.26-.27-.4-.53-.4Zm9-.65a.57.57,0,0,0-.53.52v1.84a.48.48,0,0,0,.53.52.56.56,0,0,0,.53-.52V8.49A.56.56,0,0,0,14.83,8Zm0,5a.57.57,0,0,0-.53.52v1.84a.57.57,0,0,0,.53.52.56.56,0,0,0,.53-.52V13.47a.56.56,0,0,0-.53-.52Zm4.38,5.5h-.93V6.66a1.38,1.38,0,0,0-1.46-1.44H12.58V1.94A1.38,1.38,0,0,0,11.13.5H2.65A1.39,1.39,0,0,0,1.19,1.94V18.45H.53a.53.53,0,1,0,0,1.05H19.47A.56.56,0,0,0,20,19c-.26-.27-.53-.53-.79-.53Zm-7.42,0H2.12V1.94a.56.56,0,0,1,.53-.52h8.61a.57.57,0,0,1,.53.52Zm5.56,0H12.58V6.13h4.24a.57.57,0,0,1,.53.53ZM9.8,8.62H8a.59.59,0,0,0-.53.4A.56.56,0,0,0,8,9.54H9.8A.56.56,0,0,0,10.33,9c0-.26-.26-.4-.53-.4Zm-4-4.45H4a.57.57,0,0,0-.53.52A.57.57,0,0,0,4,5.22H5.83a.57.57,0,0,0,.53-.53.48.48,0,0,0-.53-.52Zm0,0"/></svg>