<svg class="icon" width="128" height="128" viewBox="0 0 1024 1024"><path d="M59 113.1v797.8h530V113.1H59z m223.3 517.2H155.7c-7.7 0-14-6.3-14-14s6.3-14 14-14h126.6c7.7 0 14 6.3 14 14s-6.3 14-14 14z m0-125.2H155.7c-7.7 0-14-6.3-14-14s6.3-14 14-14h126.6c7.7 0 14 6.3 14 14s-6.3 14-14 14z m0-125.2H155.7c-7.7 0-14-6.3-14-14s6.3-14 14-14h126.6c7.7 0 14 6.3 14 14s-6.3 14-14 14z m210.1 250.4H365.7c-7.7 0-14-6.3-14-14s6.3-14 14-14h126.6c7.7 0 14 6.3 14 14s-6.2 14-13.9 14z m0-125.2H365.7c-7.7 0-14-6.3-14-14s6.3-14 14-14h126.6c7.7 0 14 6.3 14 14s-6.2 14-13.9 14z m0-125.2H365.7c-7.7 0-14-6.3-14-14s6.3-14 14-14h126.6c7.7 0 14 6.3 14 14s-6.2 14-13.9 14z m139-58.2v589.2H965V321.7H631.4z m230.1 308.6H734.9c-7.7 0-14-6.3-14-14s6.3-14 14-14h126.6c7.7 0 14 6.3 14 14s-6.3 14-14 14z m0-125.2H734.9c-7.7 0-14-6.3-14-14s6.3-14 14-14h126.6c7.7 0 14 6.3 14 14s-6.3 14-14 14z" /></svg>