<svg viewBox="0 0 32 32">
	<path d="M24.6,7.5c3.1,3.1,4.5,6.7,4,9.6c0,0-0.2,0.9,0.4,1.5c0.7,0.7,1.7,0.7,2.4,0c0.4-0.4,0.5-1.1,0.5-1.1
			c0.4-2.5-0.1-7.5-5-12.4C22,0.3,17-0.2,14.5,0.2c0,0-0.7,0.1-1.1,0.5c-0.6,0.7-0.6,1.7,0,2.4C14,3.6,15,3.5,15,3.5
			C17.9,3,21.4,4.4,24.6,7.5 M16.4,6.2c0,0-0.9-0.1-1.5,0.5c-0.6,0.7-0.6,1.7,0,2.4c0.4,0.4,0.9,0.5,0.9,0.5
			c1.1,0.2,2.7,0.5,4.4,2.3c1.7,1.7,2.1,3.3,2.3,4.4c0,0,0.1,0.5,0.5,0.9c0.7,0.6,1.7,0.6,2.4,0c0.6-0.6,0.5-1.5,0.5-1.5
			c-0.4-2.4-1.5-4.5-3.2-6.2C21,7.7,18.8,6.6,16.4,6.2 M12.3,19.8c2.9,2.8,6.2,5.6,7.5,4.3c1.9-1.9,3-3.5,7.2-0.2
			c4.1,3.3,1,5.5-0.8,7.4c-2.1,2.1-9.9,0.1-17.7-7.5C0.7,16-1.3,8.2,0.8,6.1c1.8-1.8,4-5,7.3-0.9c3.3,4.1,1.7,5.3-0.2,7.2
			C6.7,13.7,9.4,17,12.3,19.8"/>
</svg>
