<svg viewBox="0 0 1024 1024"><path d="M556.8 303.9c0 22.6 18.3 41 41 41h278.5c22.6 0 41-18.3 41-41 0-22.6-18.3-41-41-41H597.7c-22.6 0.1-40.9 18.4-40.9 41z" p-id="847"></path><path d="M735.4 163.2c-16 16-16 41.9 0 57.9l111.8 111.8c16 16 41.9 16 57.9 0s16-41.9 0-57.9L793.3 163.2c-15.9-16-41.9-16-57.9 0z" p-id="848"></path><path d="M735.4 444.7c16 16 41.9 16 57.9 0l111.8-111.8c16-16 16-41.9 0-57.9s-41.9-16-57.9 0L735.4 386.8c-16 15.9-16 41.9 0 57.9zM744.2 884.8c-341.7 0-618.7-277-618.7-618.7 0-13.3 0.4-26.5 1.3-39.5H43.6c-0.7 13.1-1.1 26.3-1.1 39.5 0 387.5 314.2 700.6 701.7 700.6 2.9 0 5.8-0.2 8.6-0.2v-81.7h-8.6z" p-id="849"></path><path d="M262.1 397.7m-40.9 0a40.9 40.9 0 1 0 81.8 0 40.9 40.9 0 1 0-81.8 0Z" fill="#242424" p-id="850"></path><path d="M582.8 743.8m-40.9 0a40.9 40.9 0 1 0 81.8 0 40.9 40.9 0 1 0-81.8 0Z" p-id="851"></path><path d="M886.4 814.6m-40.9 0a40.9 40.9 0 1 0 81.8 0 40.9 40.9 0 1 0-81.8 0Z" p-id="852"></path><path d="M239.5 46.3c-108.8 0-197 88.2-197 197 0 18.8 2.6 37 7.6 54.2l74.5-53v-1.2c0-63.5 51.5-115 115-115s115 51.5 115 115c0 57.7-42.5 105.5-98 113.7l-1.2 3.6-13.6 15.3 5.3 64.2c105.3-4 189.4-90.6 189.4-196.8 0-108.8-88.2-197-197-197z" p-id="853"></path><path d="M565.4 691C441 636.2 344.8 528.5 305.9 395.9l-69 1.3-7.7 9.1-6.3 3.1c47.4 173.5 177.3 312.2 344.3 372.3l-1.8-90.7zM792.5 925.6c0 19.9-18.3 40.9-40.9 40.9-22.6 0-40.9-18.3-40.9-40.9s18.3-40.9 40.9-40.9c22.6 0 40.9 18.3 40.9 40.9z" p-id="854"></path><path d="M736.5 573.8C634 573.8 549.9 652 540.4 752l83-2c9.8-53.6 56.7-94.1 113.1-94.1 63.5 0 115 51.5 115 115 0 11.2-1.6 22.1-4.6 32.3l27.3 3.9 51.5 18.8c5.1-17.5 7.8-35.9 7.8-55 0-108.9-88.2-197.1-197-197.1z" p-id="855"></path></svg>