<svg class="icon" width="128" height="128" viewBox="0 0 1024 1024"><path d="M895.296 638.976v-33.472c0-88.192-71.744-159.936-159.936-159.936S575.424 517.312 575.424 605.504v33.664a63.872 63.872 0 0 0-62.976 63.808v191.424a64 64 0 0 0 64 64h318.656a64 64 0 0 0 64-64v-191.424a64.064 64.064 0 0 0-63.808-64z m-255.872-33.472c0-52.928 43.072-95.936 95.936-95.936s95.936 43.008 95.936 95.936v33.472H639.424v-33.472z m255.616 256.896a32 32 0 0 1-32 32H608.448a32 32 0 0 1-32-32v-127.424c0-16.768 13.056-30.144 29.44-31.488h259.712c16.384 1.344 29.44 14.72 29.44 31.488v127.424z"  /><path d="M543.744 481.152v-97.92a429.568 429.568 0 0 0 127.168-29.76c4.8 11.264 7.872 23.296 11.584 35.072 17.024-4.16 34.56-7.04 52.864-7.04 4.096 0 8 0.96 12.032 1.152a443.136 443.136 0 0 0-19.008-57.152c28.16-16.32 54.464-35.584 78.592-57.6a381.504 381.504 0 0 1 80.768 173.76 223.168 223.168 0 0 1 67.52 127.36c1.024-8 2.56-15.872 2.88-24 0.576-16 0.576-48 0-64-8.256-232.832-209.792-416-446.4-416-236.608 0-438.144 183.168-446.4 416-0.576 16-0.576 48 0 64 7.744 217.792 185.536 392 401.088 413.632a126.336 126.336 0 0 1-18.048-64.448v-3.008a382.4 382.4 0 0 1-190.336-90.688 391.488 391.488 0 0 1 66.176-45.696 479.36 479.36 0 0 0 124.16 135.68v-83.136a409.6 409.6 0 0 1-66.816-79.168 353.152 353.152 0 0 1 66.816-16v-9.408c0-20.8 5.696-40.192 14.72-57.6a431.808 431.808 0 0 0-111.04 26.112 405.248 405.248 0 0 1-30.144-126.272h157.824v75.712a128.64 128.64 0 0 1 32-28.032 221.44 221.44 0 0 1 38.144-111.68h-6.144z m221.184-256h-2.688a400.064 400.064 0 0 1-62.976 44.352 480.192 480.192 0 0 0-122.88-134.464 382.464 382.464 0 0 1 188.544 90.112z m-221.184-35.52a416.384 416.384 0 0 1 97.216 107.52c-30.72 11.392-63.488 17.728-97.216 20.8V189.632z m-328.832 566.784a381.696 381.696 0 0 1-85.504-211.264h128.768c3.712 54.272 16.192 105.92 36.864 153.536a460.352 460.352 0 0 0-80.128 57.728z m43.264-275.264H129.408a382.784 382.784 0 0 1 85.504-211.264c24.576 22.144 51.392 41.472 80.128 57.728a463.872 463.872 0 0 0-36.864 153.536z m-0.128-255.488a382.464 382.464 0 0 1 191.68-91.008 478.4 478.4 0 0 0-125.504 136.768 391.872 391.872 0 0 1-66.176-45.76z m221.696 255.488H321.984a405.248 405.248 0 0 1 30.144-126.272 430.08 430.08 0 0 0 127.68 28.544v97.728z m0-162.816a374.144 374.144 0 0 1-98.176-20.288 416 416 0 0 1 98.176-108.096v128.384z"  /></svg>
