<svg id="图层_1" data-name="图层 1" xmlns="http://www.w3.org/2000/svg" viewBox="0 0 20 20"><title>画板 26</title><path d="M10,5.49a7.42,7.42,0,0,0-7.57,7.24A7.43,7.43,0,0,0,10,20a7.41,7.41,0,0,0,7.56-7.24A7.41,7.41,0,0,0,10,5.49Zm0,12.76a5.69,5.69,0,0,1-5.85-5.52A5.7,5.7,0,0,1,10,7.21a5.7,5.7,0,0,1,5.84,5.52A5.68,5.68,0,0,1,10,18.25ZM7,4.31A2.56,2.56,0,0,1,9.58,1.73h.81A2.59,2.59,0,0,1,13,4.32V5.47H14.7V4.32A4.31,4.31,0,0,0,10.39,0H9.58a4.31,4.31,0,0,0-4.3,4.3V5.47H7Zm2.14,6.16h1.72V15H9.13Zm0,0"/></svg>