<svg id="图层_1" data-name="图层 1" xmlns="http://www.w3.org/2000/svg" viewBox="0 0 20 20"><defs><style>.cls-1{fill:#0c0c0c;}</style></defs><title>画板 4</title><path class="cls-1" d="M19.25,9.37a.86.86,0,0,1,.83.92.79.79,0,0,1-.83.84H17.57A7.56,7.56,0,0,1,11,17.91v1.25a.78.78,0,0,1-.83.84.79.79,0,0,1-.84-.84V17.91a7.66,7.66,0,0,1-6.61-6.86H.84A.9.9,0,0,1,0,10.21a.84.84,0,0,1,.84-.84H2.59a7.74,7.74,0,0,1,6.7-6.78V.84A.79.79,0,0,1,10.13,0,.78.78,0,0,1,11,.84V2.59a7.58,7.58,0,0,1,6.7,6.78Zm-9,7.37a6.43,6.43,0,0,0,6.2-6.53,6.45,6.45,0,0,0-6.36-6.53,6.45,6.45,0,0,0-6.36,6.53A6.48,6.48,0,0,0,10,16.74ZM10.13,6.61a3.58,3.58,0,0,1,3.59,3.68,3.64,3.64,0,0,1-7.28,0,3.72,3.72,0,0,1,3.69-3.68Zm0,6.19a2.51,2.51,0,1,0,0-5,2.58,2.58,0,0,0-2.52,2.51,2.52,2.52,0,0,0,2.52,2.51Zm0,0"/></svg>