<svg id="图层_1" data-name="图层 1" xmlns="http://www.w3.org/2000/svg" xmlns:xlink="http://www.w3.org/1999/xlink" viewBox="0 0 20 20"><defs><style>.cls-1{fill:none;}.cls-2{clip-path:url(#clip-path);}</style><clipPath id="clip-path"><rect class="cls-1" y="0.01" width="19.94" height="19.99"/></clipPath></defs><title>画板 2</title><g class="cls-2"><path d="M17.87,0H2.08A2.13,2.13,0,0,0,0,2.1V17.9A2.13,2.13,0,0,0,2.08,20H13.92a.71.71,0,0,0,.76-.75.72.72,0,0,0-.76-.76H2.08a.52.52,0,0,1-.56-.55V2.1a.52.52,0,0,1,.56-.55H17.87a.52.52,0,0,1,.56.55v12a.72.72,0,0,0,.75.76.72.72,0,0,0,.76-.76V2.1A2.12,2.12,0,0,0,17.87,0Zm0,0"/></g><path d="M14.39,14a5.94,5.94,0,1,0-8.66.28A5.93,5.93,0,0,0,10,16a5.89,5.89,0,0,0,3.42-1l4.31,4.31c.15.15.3.15.57.15s.41,0,.56-.15a.72.72,0,0,0,.22-.5.68.68,0,0,0-.22-.49ZM10,5.44A4.62,4.62,0,0,1,14.53,10,4.62,4.62,0,0,1,10,14.56,4.61,4.61,0,0,1,5.42,10,4.61,4.61,0,0,1,10,5.44Zm0,0"/></svg>