<svg class="icon" width="128" height="128" viewBox="0 0 1024 1024"><path d="M375.466667 273.066667H204.8c-20.48 0-34.133333 13.653333-34.133333 34.133333s13.653333 34.133333 34.133333 34.133333h170.666667c20.48 0 34.133333-13.653333 34.133333-34.133333s-13.653333-34.133333-34.133333-34.133333zM375.466667 409.6H204.8c-20.48 0-34.133333 13.653333-34.133333 34.133333s13.653333 34.133333 34.133333 34.133334h170.666667c20.48 0 34.133333-13.653333 34.133333-34.133334s-13.653333-34.133333-34.133333-34.133333zM375.466667 546.133333H204.8c-20.48 0-34.133333 13.653333-34.133333 34.133334s13.653333 34.133333 34.133333 34.133333h170.666667c20.48 0 34.133333-13.653333 34.133333-34.133333s-13.653333-34.133333-34.133333-34.133334zM979.626667 860.16L904.533333 785.066667c58.026667-78.506667 51.2-191.146667-20.48-262.826667-78.506667-78.506667-208.213333-78.506667-290.133333 0-37.546667 37.546667-61.44 88.746667-61.44 143.36s20.48 105.813333 61.44 143.36c37.546667 37.546667 88.746667 61.44 143.36 61.44 44.373333 0 85.333333-13.653333 119.466667-37.546667l75.093333 75.093334c6.826667 6.826667 17.066667 10.24 23.893333 10.24s17.066667-3.413333 23.893334-10.24c13.653333-10.24 13.653333-34.133333 0-47.786667z m-337.92-95.573333c-27.306667-27.306667-40.96-61.44-40.96-95.573334s13.653333-71.68 40.96-95.573333c27.306667-27.306667 61.44-40.96 95.573333-40.96s68.266667 13.653333 95.573333 40.96c54.613333 54.613333 54.613333 139.946667 0 194.56-47.786667 47.786667-139.946667 47.786667-191.146666-3.413333zM614.4 887.466667h-102.4V273.066667h341.333333v136.533333c0 20.48 13.653333 34.133333 34.133334 34.133333s34.133333-13.653333 34.133333-34.133333V273.066667c0-37.546667-30.72-68.266667-71.68-68.266667h-334.506667-3.413333V102.4c0-37.546667-30.72-68.266667-64.853333-68.266667H133.12C98.986667 34.133333 68.266667 64.853333 68.266667 102.4v785.066667c-20.48 0-34.133333 13.653333-34.133334 34.133333s13.653333 34.133333 34.133334 34.133333h546.133333c20.48 0 34.133333-13.653333 34.133333-34.133333s-13.653333-34.133333-34.133333-34.133333zM136.533333 887.466667L133.12 102.4H443.733333v785.066667H136.533333z" /></svg>