<svg id="图层_1" data-name="图层 1" xmlns="http://www.w3.org/2000/svg" viewBox="0 0 20 20"><defs><style>.cls-1{fill:#333;}</style></defs><title>画板 27</title><path class="cls-1" d="M17.92,10a2.64,2.64,0,0,1,1.7-2.46,10.21,10.21,0,0,0-1.08-2.6,2.63,2.63,0,0,1-3.48-3.48A9.54,9.54,0,0,0,12.46.37,2.65,2.65,0,0,1,10,2.07,2.63,2.63,0,0,1,7.54.37,9.47,9.47,0,0,0,4.93,1.45,2.63,2.63,0,0,1,1.45,4.93,9.84,9.84,0,0,0,.38,7.53,2.65,2.65,0,0,1,2.07,10,2.64,2.64,0,0,1,.38,12.45a9.84,9.84,0,0,0,1.07,2.6,2.64,2.64,0,0,1,3.48,3.48,9.47,9.47,0,0,0,2.61,1.08,2.63,2.63,0,0,1,4.92,0,9.54,9.54,0,0,0,2.6-1.08,2.64,2.64,0,0,1,3.48-3.48,9.78,9.78,0,0,0,1.08-2.6A2.63,2.63,0,0,1,17.92,10ZM10,12.63A2.64,2.64,0,1,1,12.64,10,2.65,2.65,0,0,1,10,12.63Zm0,0"/></svg>