<svg width="158" height="158" viewBox="0 0 1024 1024"><path d="M937.5232 480.533333c0.759467 10.389333 1.143467 20.885333 1.143467 31.466667 0 235.639467-191.0272 426.666667-426.666667 426.666667S85.333333 747.639467 85.333333 512 276.360533 85.333333 512 85.333333c10.581333 0 21.077333 0.384 31.466667 1.143467a36.266667 36.266667 0 1 1 3.140266 70.912v0.7168a359.880533 359.880533 0 0 0-34.606933-1.664c-196.369067 0-355.554133 159.189333-355.554133 355.5584s159.189333 355.554133 355.554133 355.554133c196.369067 0 355.554133-159.189333 355.554133-355.554133 0-11.677867-0.5632-23.2192-1.664-34.606933h0.725334a36.266667 36.266667 0 1 1 70.912 3.140266zM474.333867 303.0912A32 32 0 1 1 486.4 363.707733v2.2528c-70.276267 12.142933-123.733333 73.403733-123.733333 147.1488 0 82.474667 66.858667 149.333333 149.333333 149.333334 76.701867 0 139.899733-57.8304 148.369067-132.266667h1.604266a32 32 0 1 1 60.0448 20.599467C704.2304 650.624 616.968533 726.442667 512 726.442667c-117.819733 0-213.333333-95.5136-213.333333-213.333334 0-104.968533 75.810133-192.2304 175.6672-210.018133zM643.618133 422.2592l-101.1456 103.1424a30.485333 30.485333 0 0 1-43.643733-0.1152 32.042667 32.042667 0 0 1 0.119467-44.744533l101.755733-103.765334-6.865067-84.1088a84.394667 84.394667 0 0 1 24.448-66.530133l125.994667-125.994667c18.077867-18.077867 47.3728-18.090667 65.4336-0.034133a46.203733 46.203733 0 0 1 10.325333 15.761067l0.9984 2.5344a152.098133 152.098133 0 0 0 88.388267 86.848c22.570667 8.4224 34.0224 33.557333 25.578667 56.136533a43.6992 43.6992 0 0 1-10.030934 15.594667l-127.9232 127.918933a84.394667 84.394667 0 0 1-66.530133 24.448l-86.903467-7.0912z m19.328-151.3984a21.162667 21.162667 0 0 0-6.139733 16.657067l5.879467 72.9856 72.9856 5.879466a21.162667 21.162667 0 0 0 16.657066-6.135466l108.16-108.168534a214.830933 214.830933 0 0 1-88.7168-90.043733l-108.829866 108.8256z" /></svg>
