<svg viewBox="0 0 1092 1024"><path d="M855.517867 203.776L868.898133 0l-71.68 57.617067-156.740266 137.284266-17.954134 155.170134-131.140266 110.865066 14.7456-75.434666c-8.942933-4.437333-17.885867-4.437333-26.897067-4.437334-76.117333 0-143.36 62.122667-143.36 141.858134 0 79.735467 62.805333 137.352533 143.36 137.352533 76.117333 0 138.8544-62.122667 138.8544-137.352533h-64.580267l127.317334-115.234134 165.6832 4.437334 156.740266-146.2272 53.794134-48.7424-201.5232-13.380267z m-376.285867 549.546667c-129.8432 0-237.3632-106.359467-237.3632-234.837334 0-128.546133 107.52-234.837333 237.3632-234.837333 17.954133 0 31.402667 0 49.288533 4.369067l49.288534-234.837334c-31.402667-4.437333-62.805333-8.874667-98.577067-8.874666C215.04 44.305067 0 257.024 0 518.417067c0 261.461333 215.04 474.180267 479.232 474.180266 259.822933 0 470.289067-203.844267 479.232-456.430933V522.922667l-241.8688-4.437334c0 128.546133-107.451733 234.837333-237.3632 234.837334z" p-id="16866"></path></svg>
