<svg id="图层_1" data-name="图层 1" xmlns="http://www.w3.org/2000/svg" xmlns:xlink="http://www.w3.org/1999/xlink" viewBox="0 0 20 20"><defs><style>.cls-1{fill:none;}.cls-2{clip-path:url(#clip-path);}.cls-3{fill:#424656;}</style><clipPath id="clip-path"><rect class="cls-1" x="0.67" width="18.66" height="20"/></clipPath></defs><title>画板 6</title><g class="cls-2"><path class="cls-3" d="M1.64,5.82a1,1,0,1,1,0-1.93H18.36a1,1,0,1,1,0,1.93Zm0,0"/></g><path class="cls-3" d="M6.46,4.85a1,1,0,1,1-1.93,0V2.28A2.25,2.25,0,0,1,6.78,0h6.44a2.25,2.25,0,0,1,2.25,2.25V4.85a1,1,0,0,1-.49.84,1,1,0,0,1-1.44-.84V2.28A.32.32,0,0,0,13.22,2H6.78a.32.32,0,0,0-.32.32ZM2,8.71a1,1,0,0,1,1.93,0v9a.32.32,0,0,0,.32.32H15.79a.32.32,0,0,0,.32-.32v-9a1,1,0,1,1,1.93,0v9A2.25,2.25,0,0,1,15.79,20H4.21A2.25,2.25,0,0,1,2,17.72Zm0,0"/><path class="cls-3" d="M7.1,8.71A1,1,0,0,1,9,8.71v6.43a1,1,0,0,1-.48.84,1,1,0,0,1-1.45-.84Zm3.86,0a1,1,0,0,1,1.93,0v6.43a1,1,0,0,1-.48.84A1,1,0,0,1,11,15.14Zm0,0"/></svg>