<svg id="图层_1" data-name="图层 1" xmlns="http://www.w3.org/2000/svg" xmlns:xlink="http://www.w3.org/1999/xlink" viewBox="0 0 20 20"><defs><style>.cls-1{fill:none;}.cls-2{clip-path:url(#clip-path);}</style><clipPath id="clip-path"><rect class="cls-1" x="0.09" y="0.79" width="19.83" height="18.42"/></clipPath></defs><title>画板 7</title><g class="cls-2"><path d="M1.58.8a.29.29,0,0,1,.29.29V17.41H19.61a.29.29,0,0,1,.29.28v1.22a.29.29,0,0,1-.29.28H1a.89.89,0,0,1-.63-.26.92.92,0,0,1-.26-.63V1.09A.29.29,0,0,1,.37.8Zm0,0"/></g><path d="M5.48,6.46H6.7A.29.29,0,0,1,7,6.75v7.92A.29.29,0,0,1,6.7,15H5.48a.28.28,0,0,1-.28-.29V6.75a.28.28,0,0,1,.28-.29Zm0,0"/><path d="M10.1,3.63h1.22a.26.26,0,0,1,.29.29V14.67a.26.26,0,0,1-.29.29H10.1a.26.26,0,0,1-.28-.29V3.92a.26.26,0,0,1,.28-.29Zm0,0"/><path d="M14.73,8.23H16c.19,0,.28.1.28.29v6.15c0,.19-.09.29-.28.29H14.73c-.19,0-.28-.1-.28-.29V8.52c0-.19.09-.29.28-.29Zm0,0"/></svg>