<svg id="图层_1" data-name="图层 1" xmlns="http://www.w3.org/2000/svg" viewBox="0 0 20 20"><title>画板 8</title><path d="M6.59.72c-.14.07-.21.07-.35.14A9.83,9.83,0,0,0,10.1,19.72a10,10,0,0,0,9.11-6.1.24.24,0,0,1,.07-.14A.71.71,0,1,0,18,13c0,.07-.07.07-.07.14a8.34,8.34,0,0,1-7.78,5.19A8.42,8.42,0,0,1,6.73,2.19c.07-.07.14-.07.28-.14a.73.73,0,0,0,.42-.91A.59.59,0,0,0,6.59.72Zm4.28,8.41h7.71a8.48,8.48,0,0,0-7.71-7.71ZM10.17,0A9.83,9.83,0,0,1,20,9.83a.66.66,0,0,1-.7.7H10.17a.66.66,0,0,1-.7-.7V.72a.66.66,0,0,1,.7-.7Zm0,0"/></svg>