<svg width="158" height="158" viewBox="0 0 1024 1024"><path d="M441.192 181.831c132.48-13.704 255.824 68.524 292.371 191.868 4.568 18.274-4.568 27.41-13.704 31.978-9.137 0-22.841-4.568-27.41-18.274-31.978-109.639-137.049-178.163-251.256-159.89-22.841 4.567-27.41-41.114 0-45.683zM765.539 693.479c-4.568-4.567 0-18.274 4.567-22.841 50.251-63.955 77.661-141.617 77.661-228.413 0-201.004-164.459-365.463-365.463-365.463-201.004 0-365.463 164.459-365.463 365.463 0 201.004 164.459 365.463 365.463 365.463 86.797 0 164.459-27.41 223.846-73.092 9.137-9.137 18.274-13.704 27.41-4.567l127.913 132.48c9.137 9.137 27.41 4.567 36.547-4.567v0c9.137-9.137 9.137-22.841 0-31.978l-132.48-132.48zM482.307 766.571c-178.163 0-319.779-146.185-319.779-324.348s141.617-319.779 319.779-319.779c178.163 0 324.348 141.616 324.348 319.779 0 178.163-146.185 324.348-324.348 324.348z" /></svg>
