<svg viewBox="0 0 1024 1024"><path d="M383.334 671.744a237.568 237.568 0 1 1 250.88 0l-11.212 78.234a51.2 51.2 0 0 1-50.688 43.98h-127.13a51.2 51.2 0 0 1-50.688-43.98l-11.162-78.183z m17.408 165.376h216.013v21.606a107.98 107.98 0 1 1-215.961 0V837.12zM192.82 485.376l6.349 45.158-90.368 12.698-6.4-45.158 90.368-12.698z m37.888-176.947l-18.585 41.677-83.354-37.12 18.586-41.677 83.353 37.12zM358.144 180.94l-38.246 24.832-49.664-76.544 38.195-24.832 49.715 76.493z m176.077-38.503H488.6V51.2h45.569v91.238z m168.857 62.67l-38.246-24.833 49.664-76.493 38.298 24.832-49.716 76.493z m108.903 144.486l-19.251-41.319 82.688-38.605 19.302 41.37-82.74 38.554z m12.953 179.814l6.35-45.21 90.316 12.698-6.349 45.21-90.368-12.698z" p-id="26815"></path></svg>
