<svg viewBox="0 0 1024 1024"><path d="M850.184717 938.482026H150.492199a42.758987 42.758987 0 0 0 0 85.517974h699.692518a42.758987 42.758987 0 0 0 0-85.517974zM947.364233 0H76.635767A69.969252 69.969252 0 0 0 6.666515 69.969252v652.502145a69.969252 69.969252 0 0 0 69.969252 69.969251h870.728466a69.969252 69.969252 0 0 0 69.969252-69.969251V69.969252a69.969252 69.969252 0 0 0-69.969252-69.969252zM278.769161 596.410128a34.984626 34.984626 0 0 1-69.969252 0V388.718066a34.984626 34.984626 0 0 1 69.969252 0z m268.215465 0a34.984626 34.984626 0 0 1-69.969252 0v-377.056524a34.984626 34.984626 0 0 1 69.969252 0z m268.215465 0a34.984626 34.984626 0 0 1-69.969252 0V381.915499a34.984626 34.984626 0 0 1 69.969252 0z" p-id="12227"></path></svg>
